<?xml version="1.0" standalone="no"?><!DOCTYPE svg PUBLIC "-//W3C//DTD SVG 1.1//EN" "http://www.w3.org/Graphics/SVG/1.1/DTD/svg11.dtd"><svg t="1492050403395" class="icon" style="" viewBox="0 0 1024 1024" version="1.1" xmlns="http://www.w3.org/2000/svg" p-id="2550" xmlns:xlink="http://www.w3.org/1999/xlink" width="64" height="64"><defs><style type="text/css"></style></defs><path d="M176.762843 347.660094c0.796132 7.012717 2.674922 13.713326 5.479805 19.947308 0.602727 1.340531 1.258667 2.65241 1.945305 3.947915 0.856507 1.6158 1.759063 3.206018 2.739391 4.747117 0.7552 1.187035 1.559519 2.341325 2.385327 3.481288 8.538467 11.775184 20.753673 20.935822 35.074843 25.940812 0.026606 0.00921 0.053212 0.016373 0.079818 0.025583 6.708795 2.336208 13.875009 3.764744 21.336958 4.125971 1.248434 0.060375 2.505054 0.091074 3.76986 0.091074 24.988114 0 47.041386-11.952216 60.261479-30.184463 0.825808-1.13894 1.629103-2.294252 2.385327-3.481288 5.424546-8.522094 8.984628-18.241456 10.1645-28.64234 0.150426-1.329275 0.273223-2.666736 0.344854-4.016477 0.063445-1.192152 0.095167-2.391467 0.095167-3.597945 0-1.206478-0.031722-2.406816-0.095167-3.597945-1.898233-35.753295-31.930223-64.421218-69.3863-66.233494-1.248434-0.060375-2.505054-0.091074-3.76986-0.091074-39.191604 0-71.194482 29.379121-73.15616 66.324568-0.063445 1.192152-0.095167 2.391467-0.095167 3.597945 0 1.206478 0.031722 2.406816 0.095167 3.597945C176.48962 344.993359 176.611393 346.33082 176.762843 347.660094z" p-id="2551" fill="#bfbfbf"></path><path d="M677.004031 358.350574 676.243715 357.678262 493.582535 519.064906 312.453245 519.064906 312.452221 519.065929 310.932612 519.065929 173.943634 640.110773 173.943634 720.80256 858.892615 720.80256 858.892615 720.801537 860.414271 720.801537 860.414271 519.064906 677.764348 357.678262Z" p-id="2552" fill="#bfbfbf"></path><path d="M942.520267 73.856102 90.315982 73.856102c-40.466644 0-73.271794 32.80515-73.271794 73.271794l0 710.169385c0 40.466644 32.80515 73.271794 73.271794 73.271794l852.204285 0c40.466644 0 73.271794-32.80515 73.271794-73.271794L1015.792061 147.127895C1015.791038 106.661252 982.986911 73.856102 942.520267 73.856102zM973.571471 809.730938c0 41.570791-33.700543 75.271334-75.271334 75.271334L136.647193 885.002272c-41.570791 0-75.271334-33.700543-75.271334-75.271334L61.375859 189.996239c0-41.570791 33.700543-75.271334 75.271334-75.271334L898.300137 114.724905c41.570791 0 75.271334 33.700543 75.271334 75.271334L973.571471 809.730938z" p-id="2553" fill="#bfbfbf"></path></svg>